# File created by Blade
# Date/Time:  Wed Jan 21 19:14:05 2015
#---------------------------------------------------------
:version 1.10
:name HOM
:units
  mass 1.0
  length 1.000000
  angle deg
:documentation
     Acclaim Skeleton File
:root
   axis xyz
   order TX TY TZ RX RY RZ
   position 0.000000 0.000000 0.000000
   orientation 0 0 0
:bonedata
   begin
      id 1
      name RightUpLeg_dum
      direction -1.000000 0.000000 0.000000
      length 3.693983
      axis 0.0 0.0 0.0 xyz
   end
   begin
      id 2
      name LeftUpLeg_dum
      direction 1.000000 0.000000 0.000000
      length 3.693983
      axis 0.0 0.0 0.0 xyz
   end
   begin
      id 3
      name Spine_dum
      direction 0.000000 1.000000 0.000000
      length 2.392956
      axis 0.0 0.0 0.0 xyz
   end
   begin
      id 4
      name RightUpLeg
      direction 0.000000 -1.000000 0.000000
      length 15.795667
      axis 0.0 0.0 0.0 xyz
      dof rx ry rz
   end
   begin
      id 5
      name RightLeg
      direction 0.000000 -1.000000 0.000000
      length 14.766989
      axis 0.0 0.0 0.0 xyz
      dof rx ry rz
   end
   begin
      id 6
      name RightFoot
      direction 0.000000 -0.258819 0.965926
      length 4.962790
      axis 15.0 0.0 0.0 xyz
      dof rx ry rz
   end
   begin
      id 7
      name RightToeBase
      direction 0.000000 0.000000 1.000000
      length 2.952750
      axis 0.0 0.0 0.0 xyz
      dof rx ry rz
   end
   begin
      id 8
      name LeftUpLeg
      direction 0.000000 -1.000000 0.000000
      length 15.795667
      axis 0.0 0.0 0.0 xyz
      dof rx ry rz
   end
   begin
      id 9
      name LeftLeg
      direction 0.000000 -1.000000 0.000000
      length 14.766989
      axis 0.0 0.0 0.0 xyz
      dof rx ry rz
   end
   begin
      id 10
      name LeftFoot
      direction 0.000000 -0.258819 0.965926
      length 4.962790
      axis 15.0 0.0 0.0 xyz
      dof rx ry rz
   end
   begin
      id 11
      name LeftToeBase
      direction 0.000000 0.000000 1.000000
      length 2.952750
      axis 0.0 0.0 0.0 xyz
      dof rx ry rz
   end
   begin
      id 12
      name Spine
      direction 0.000000 1.000000 0.000000
      length 0.000000
      axis 0.0 0.0 0.0 xyz
      dof rx ry rz
   end
   begin
      id 13
      name Spine_dum1
      direction 0.000000 1.000000 0.000000
      length 13.207411
      axis 0.0 0.0 0.0 xyz
   end
   begin
      id 14
      name Spine_dum2
      direction 0.000000 1.000000 0.000000
      length 13.207411
      axis 0.0 0.0 0.0 xyz
   end
   begin
      id 15
      name Spine_dum3
      direction 0.000000 1.000000 0.000000
      length 19.250100
      axis 0.0 0.0 0.0 xyz
   end
   begin
      id 16
      name RightShoulder
      direction -1.000000 0.000000 0.000000
      length 8.140465
      axis 0.0 0.0 90.0 xyz
      dof rx ry rz
   end
   begin
      id 17
      name RightArm
      direction -1.000000 0.000000 0.000000
      length 10.649840
      axis 0.0 0.0 90.0 xyz
      dof rx ry rz
   end
   begin
      id 18
      name RightForeArm
      direction -1.000000 0.000000 0.000000
      length 8.304624
      axis 0.0 0.0 90.0 xyz
      dof ry rz rx
   end
   begin
      id 19
      name RightHand
      direction -1.000000 0.000000 0.000000
      length 0.000000
      axis 0.0 0.0 90.0 xyz
      dof rx ry rz
   end
   begin
      id 20
      name RightHand_dum1
      direction -1.000000 0.000000 0.000000
      length 3.937000
      axis 0.0 0.0 90.0 xyz
   end
   begin
      id 21
      name RightHand_dum2
      direction 0.000000 0.000000 0.000000
      length 0.000000
      axis 0.0 0.0 90.0 xyz
   end
   begin
      id 22
      name RightHandThumb1
      direction 0.000000 0.000000 1.000000
      length 3.937000
      axis 0.0 0.0 90.0 xyz
      dof rx rz ry
   end
   begin
      id 23
      name LeftShoulder
      direction 1.000000 0.000000 0.000000
      length 8.140465
      axis 0.0 0.0 -90.0 xyz
      dof rx ry rz
   end
   begin
      id 24
      name LeftArm
      direction 1.000000 0.000000 0.000000
      length 10.649840
      axis 0.0 0.0 -90.0 xyz
      dof rx ry rz
   end
   begin
      id 25
      name LeftForeArm
      direction 1.000000 0.000000 0.000000
      length 8.304624
      axis 0.0 0.0 -90.0 xyz
      dof ry rz rx
   end
   begin
      id 26
      name LeftHand
      direction 1.000000 0.000000 0.000000
      length 0.000000
      axis 0.0 0.0 -90.0 xyz
      dof rx ry rz
   end
   begin
      id 27
      name LeftHand_dum1
      direction 1.000000 0.000000 0.000000
      length 3.937000
      axis 0.0 0.0 -90.0 xyz
   end
   begin
      id 28
      name LeftHand_dum2
      direction 0.000000 0.000000 0.000000
      length 0.000000
      axis 0.0 0.0 -90.0 xyz
   end
   begin
      id 29
      name LeftHandThumb1
      direction 0.000000 0.000000 1.000000
      length 3.937000
      axis 0.0 0.0 -90.0 xyz
      dof rx rz ry
   end
   begin
      id 30
      name Head
      direction 0.000000 1.000000 0.000000
      length 4.527550
      axis 0.0 0.0 0.0 xyz
      dof rx ry rz
   end
:hierarchy
   begin
      root RightUpLeg_dum LeftUpLeg_dum Spine_dum
      RightUpLeg_dum RightUpLeg
      LeftUpLeg_dum LeftUpLeg
      Spine_dum Spine
      RightUpLeg RightLeg
      RightLeg RightFoot
      RightFoot RightToeBase
      LeftUpLeg LeftLeg
      LeftLeg LeftFoot
      LeftFoot LeftToeBase
      Spine Spine_dum1 Spine_dum2 Spine_dum3
      Spine_dum1 RightShoulder
      Spine_dum2 LeftShoulder
      Spine_dum3 Head
      RightShoulder RightArm
      RightArm RightForeArm
      RightForeArm RightHand
      RightHand RightHand_dum1 RightHand_dum2
      RightHand_dum2 RightHandThumb1
      LeftShoulder LeftArm
      LeftArm LeftForeArm
      LeftForeArm LeftHand
      LeftHand LeftHand_dum1 LeftHand_dum2
      LeftHand_dum2 LeftHandThumb1
   end

# File created by Blade
# Date/Time:  Wed Jan 21 19:13:57 2015
# Frame Rate: 120.000 fps
#------------------------------------------------------
:FULLY-SPECIFIED
:DEGREES
73
root -5.277204 32.826653 -4.213007 49.601094 29.352230 0.264442
RightUpLeg -36.339713 -14.744692 9.824814
RightLeg -5.239249 -0.000000 0.000000
RightFoot -7.892816 -8.481215 23.573755
RightToeBase 10.481030 -0.000000 -0.000000
LeftUpLeg -44.762072 7.619062 -7.958457
LeftLeg -0.102607 -0.000000 0.000000
LeftFoot -7.924079 0.501301 -6.462416
LeftToeBase 8.552867 -0.000000 -0.000000
Spine -49.395077 1.724403 -3.085575
RightShoulder -16.201115 11.914877 -36.647003
RightArm -3.460159 -13.107181 62.683705
RightForeArm 9.571661 0.000000 -4.010105
RightHand 10.280933 -0.000000 2.574695
RightHandThumb1 -24.326973 -0.000000 -32.862282
LeftShoulder -11.398523 3.408186 37.058650
LeftArm 28.210338 -6.363155 -45.451290
LeftForeArm 11.518607 -0.000000 -1.160121
LeftHand -18.856808 -0.000000 -2.244729
LeftHandThumb1 -26.253704 0.000000 33.147579
Head 7.570253 -0.819260 4.916105
74
root -5.233748 32.831887 -4.192459 49.632488 30.025301 0.224303
RightUpLeg -36.216705 -14.866162 9.784272
RightLeg -5.164707 -0.000000 0.000000
RightFoot -7.628717 -8.238535 23.526352
RightToeBase 10.240821 -0.000000 -0.000000
LeftUpLeg -44.841353 7.549752 -7.852953
LeftLeg -0.061392 -0.000000 0.000000
LeftFoot -7.853330 0.116319 -6.444332
LeftToeBase 8.438425 -0.000000 -0.000000
Spine -49.382114 1.679818 -3.078886
RightShoulder -16.309920 11.679217 -36.498261
RightArm -3.588124 -13.105815 63.031000
RightForeArm 9.729122 -0.000000 -3.842977
RightHand 10.395245 0.000000 2.306564
RightHandThumb1 -24.326973 -0.000000 -32.862282
LeftShoulder -11.293413 3.408075 37.001138
LeftArm 28.420538 -6.058957 -45.518338
LeftForeArm 11.306708 0.000000 -1.077286
LeftHand -18.833163 -0.000000 -2.353743
LeftHandThumb1 -26.253704 0.000000 33.147579
Head 7.445496 -1.146580 5.082762
75
root -5.199413 32.838403 -4.177871 49.691650 30.742958 0.159762
RightUpLeg -36.105899 -14.848945 9.696048
RightLeg -5.109696 -0.000000 0.000000
RightFoot -7.377446 -8.137762 23.543162
RightToeBase 9.971843 -0.000000 -0.000000
LeftUpLeg -44.999439 7.463857 -7.705526
LeftLeg 0.017129 -0.000000 -0.000000
LeftFoot -7.797507 -0.244863 -6.401433
LeftToeBase 8.370291 -0.000000 -0.000000
Spine -49.386307 1.593184 -2.998025
RightShoulder -16.373699 11.490129 -36.364715
RightArm -3.770830 -13.053931 63.419816
RightForeArm 9.628678 0.000000 -3.594598
RightHand 10.289183 -0.000000 2.132587
RightHandThumb1 -24.326973 -0.000000 -32.862282
LeftShoulder -11.219755 3.398447 36.928099
LeftArm 28.626789 -5.827511 -45.598803
LeftForeArm 11.259878 -0.000000 -1.048327
LeftHand -18.724906 -0.000000 -2.343681
LeftHandThumb1 -26.253704 0.000000 33.147579
Head 7.307216 -1.428785 5.235728
76
root -5.164323 32.843904 -4.159047 49.758194 31.448391 0.110395
RightUpLeg -35.998245 -14.846840 9.601070
RightLeg -5.038891 -0.000000 0.000000
RightFoot -7.133982 -8.041508 23.521065
RightToeBase 9.626310 -0.000000 -0.000000
LeftUpLeg -45.123991 7.386522 -7.577931
LeftLeg 0.025455 -0.000000 -0.000000
LeftFoot -7.699902 -0.603065 -6.328772
LeftToeBase 8.292352 -0.000000 -0.000000
Spine -49.414272 1.512734 -2.959452
RightShoulder -16.419200 11.279556 -36.238487
RightArm -3.969174 -13.094864 63.850524
RightForeArm 9.629494 -0.000000 -3.402919
RightHand 10.261814 0.000000 1.753505
RightHandThumb1 -24.326973 -0.000000 -32.862282
LeftShoulder -11.193260 3.032848 36.892448
LeftArm 28.734775 -5.333365 -45.619839
LeftForeArm 11.168988 -0.000000 -1.148273
LeftHand -18.583763 -0.000000 -2.432004
LeftHandThumb1 -26.253704 0.000000 33.147579
Head 7.207968 -1.751753 5.416354
77
root -5.130429 32.851483 -4.143422 49.849758 32.163015 0.080922
RightUpLeg -35.911358 -14.864540 9.498002
RightLeg -4.974309 -0.000000 0.000000
RightFoot -6.856023 -7.846282 23.614374
RightToeBase 9.313545 -0.000000 -0.000000
LeftUpLeg -45.268831 7.284041 -7.471341
LeftLeg 0.037301 -0.000000 -0.000000
LeftFoot -7.543086 -0.898912 -6.255795
LeftToeBase 8.018887 -0.000000 -0.000000
Spine -49.435031 1.417782 -2.937288
RightShoulder -16.486894 11.047607 -36.099517
RightArm -4.145880 -13.233645 64.282966
RightForeArm 9.672737 -0.000000 -3.226104
RightHand 10.396097 -0.000000 1.677729
RightHandThumb1 -24.326973 -0.000000 -32.862282
LeftShoulder -11.106441 2.937161 36.841407
LeftArm 28.910884 -4.988359 -45.665099
LeftForeArm 11.016532 -0.000000 -1.094925
LeftHand -18.511286 0.000000 -2.477660
LeftHandThumb1 -26.253704 0.000000 33.147579
Head 7.069143 -2.078142 5.581541
78
root -5.096672 32.859279 -4.127147 49.959159 32.886498 0.056150
RightUpLeg -35.836521 -14.885542 9.421659
RightLeg -4.922359 -0.000000 0.000000
RightFoot -6.546972 -7.719919 23.504316
RightToeBase 8.922239 -0.000000 -0.000000
LeftUpLeg -45.441842 7.255515 -7.448304
LeftLeg 0.055414 -0.000000 -0.000000
LeftFoot -7.379848 -1.296049 -6.152657
LeftToeBase 7.741580 -0.000000 -0.000000
Spine -49.479228 1.313947 -2.906916
RightShoulder -16.539793 10.670850 -35.915629
RightArm -4.179444 -13.266874 64.672543
RightForeArm 9.737888 -0.000000 -3.035243
RightHand 10.361777 -0.000000 1.288185
RightHandThumb1 -24.326973 -0.000000 -32.862282
LeftShoulder -10.977529 2.883114 36.794235
LeftArm 29.070177 -4.795797 -45.786937
LeftForeArm 11.029460 -0.000000 -1.043078
LeftHand -18.427672 0.000000 -2.431287
LeftHandThumb1 -26.253704 0.000000 33.147579
Head 6.961531 -2.366799 5.753443
79
root -5.065603 32.868758 -4.109342 50.059642 33.623249 0.017204
RightUpLeg -35.758549 -14.879234 9.346817
RightLeg -4.847559 -0.000000 0.000000
RightFoot -6.296496 -7.614563 23.584477
RightToeBase 8.657757 -0.000000 -0.000000
LeftUpLeg -45.596517 7.196169 -7.368383
LeftLeg 0.039051 -0.000000 -0.000000
LeftFoot -7.176293 -1.647514 -6.076384
LeftToeBase 7.422121 -0.000000 -0.000000
Spine -49.507255 1.201842 -2.874358
RightShoulder -16.615316 10.433903 -35.763030
RightArm -4.367104 -13.354961 65.116730
RightForeArm 9.760124 0.000000 -2.852175
RightHand 10.461480 -0.000000 1.193731
RightHandThumb1 -24.326973 -0.000000 -32.862282
LeftShoulder -10.862977 2.939468 36.752955
LeftArm 29.302490 -4.669272 -45.935204
LeftForeArm 11.043653 -0.000000 -0.949553
LeftHand -18.433986 -0.000000 -2.422336
LeftHandThumb1 -26.253704 0.000000 33.147579
Head 6.781896 -2.644873 5.967732
80
root -5.034468 32.878475 -4.091332 50.163126 34.353179 -0.012751
RightUpLeg -35.677781 -14.872675 9.264063
RightLeg -4.785650 -0.000000 0.000000
RightFoot -6.028391 -7.501302 23.700851
RightToeBase 8.375157 -0.000000 -0.000000
LeftUpLeg -45.736268 7.143337 -7.309611
LeftLeg -0.007971 -0.000000 0.000000
LeftFoot -6.968522 -2.002826 -5.990863
LeftToeBase 7.250087 -0.000000 -0.000000
Spine -49.542691 1.092101 -2.851186
RightShoulder -16.678124 10.175020 -35.595895
RightArm -4.537548 -13.408015 65.557038
RightForeArm 9.787861 -0.000000 -2.704587
RightHand 10.699812 -0.000000 0.880422
RightHandThumb1 -24.326973 -0.000000 -32.862282
LeftShoulder -10.810647 2.822936 36.687044
LeftArm 29.547838 -4.311403 -45.964199
LeftForeArm 10.950262 0.000000 -0.983674
LeftHand -18.377209 -0.000000 -2.457212
LeftHandThumb1 -26.253704 0.000000 33.147579
Head 6.669515 -2.932952 6.167355
81
root -5.000912 32.890130 -4.071800 50.273523 35.066890 -0.026700
RightUpLeg -35.577751 -14.815244 9.111236
RightLeg -4.729334 -0.000000 0.000000
RightFoot -5.742927 -7.431170 23.820061
RightToeBase 8.060883 -0.000000 -0.000000
LeftUpLeg -45.902209 7.210893 -7.402563
LeftLeg -0.019669 -0.000000 0.000000
LeftFoot -6.714865 -2.509755 -5.899976
LeftToeBase 6.999095 -0.000000 -0.000000
Spine -49.585676 0.981116 -2.848321
RightShoulder -16.688703 9.960921 -35.426006
RightArm -4.821903 -13.396899 66.005048
RightForeArm 9.756256 -0.000000 -2.493452
RightHand 10.867604 0.000000 0.540253
RightHandThumb1 -24.326973 -0.000000 -32.862282
LeftShoulder -10.684358 2.766853 36.660078
LeftArm 29.724777 -4.151434 -46.142861
LeftForeArm 11.033380 -0.000000 -0.945978
LeftHand -18.362340 -0.000000 -2.502818
LeftHandThumb1 -26.253704 0.000000 33.147579
Head 6.557278 -3.209587 6.357451
